<?xml version="1.0" standalone="no"?>
<!DOCTYPE svg PUBLIC "-//W3C//DTD SVG 20010904//EN" "http://www.w3.org/TR/2001/REC-SVG-20010904/DTD/svg10.dtd">
<!-- Created using Karbon14, part of koffice: http://www.koffice.org/karbon -->
<svg xmlns="http://www.w3.org/2000/svg" xmlns:xlink="http://www.w3.org/1999/xlink" width="102.4pt" height="102.4pt">
  <defs>
  </defs>
  <g id="defitem2">
    <path id="path2427" fill="#000000" d="M588.902 206.103C588.902 319.919 457.087 412.213 294.463 412.213C131.827 412.213 0 319.92 0 206.103C0 92.2765 131.827 0 294.463 0C457.086 0 588.902 92.2775 588.902 206.103ZM461.569 106.476C419.637 106.476 385.644 128.013 385.644 154.566C385.644 181.128 419.637 202.666 461.569 202.666C503.504 202.666 537.495 181.128 537.495 154.566C537.496 128.013 503.504 106.476 461.569 106.476ZM411.505 248.992C369.55 248.992 335.58 271.142 335.58 298.46C335.58 325.787 369.55 347.949 411.505 347.949C453.418 347.949 487.431 325.787 487.431 298.46C487.432 271.143 453.419 248.992 411.505 248.992ZM200.053 248.992C158.099 248.992 124.127 271.142 124.127 298.46C124.127 325.787 158.099 347.949 200.053 347.949C241.976 347.949 275.968 325.787 275.968 298.46C275.967 271.143 241.976 248.992 200.053 248.992ZM294.639 15.6858C252.696 15.6858 218.714 34.1489 218.714 56.9083C218.714 79.6832 252.697 98.1402 294.639 98.1402C336.564 98.1402 370.577 79.6832 370.577 56.9083C370.577 34.1489 336.564 15.6858 294.639 15.6858ZM134.668 106.476C92.7239 106.476 58.7423 128.013 58.7423 154.566C58.7423 181.128 92.7249 202.666 134.668 202.666C176.591 202.666 210.593 181.128 210.593 154.566C210.593 128.013 176.591 106.476 134.668 106.476Z"  transform="matrix(0.213333 0 0 0.213333 1.43078 28.4645)" />
    <path id="path8" fill="#737373" d="M588.902 206.103C588.902 319.919 457.087 412.213 294.463 412.213C131.827 412.213 0 319.92 0 206.103C0 92.2765 131.827 0 294.463 0C457.086 0 588.902 92.2775 588.902 206.103ZM461.569 106.476C419.637 106.476 385.644 128.013 385.644 154.566C385.644 181.128 419.637 202.666 461.569 202.666C503.504 202.666 537.495 181.128 537.495 154.566C537.496 128.013 503.504 106.476 461.569 106.476ZM411.505 248.992C369.55 248.992 335.58 271.142 335.58 298.46C335.58 325.787 369.55 347.949 411.505 347.949C453.418 347.949 487.431 325.787 487.431 298.46C487.432 271.143 453.419 248.992 411.505 248.992ZM200.053 248.992C158.099 248.992 124.127 271.142 124.127 298.46C124.127 325.787 158.099 347.949 200.053 347.949C241.976 347.949 275.968 325.787 275.968 298.46C275.967 271.143 241.976 248.992 200.053 248.992ZM294.639 15.6858C252.696 15.6858 218.714 34.1489 218.714 56.9083C218.714 79.6832 252.697 98.1402 294.639 98.1402C336.564 98.1402 370.577 79.6832 370.577 56.9083C370.577 34.1489 336.564 15.6858 294.639 15.6858ZM134.668 106.476C92.7239 106.476 58.7423 128.013 58.7423 154.566C58.7423 181.128 92.7249 202.666 134.668 202.666C176.591 202.666 210.593 181.128 210.593 154.566C210.593 128.013 176.591 106.476 134.668 106.476Z"  transform="matrix(0.213333 0 0 0.213333 1.37017 27.8498)" />
    <path id="path15" fill="#000000" d="M371.98 118.923C371.98 184.596 288.72 237.837 185.979 237.837C83.2717 237.837 0 184.596 0 118.923C0 53.2392 83.2717 0 185.979 0C288.72 0 371.98 53.2392 371.98 118.923Z"  transform="matrix(0.213333 0 0 0.213333 24.5736 36.4328)" />
    <path id="path17" fill="#b2b2b2" opacity="0.42" d="M371.98 118.924C371.98 184.597 288.72 237.837 185.99 237.837C83.2706 237.837 0 184.597 0 118.924C0 53.2403 83.2706 0 185.99 0C288.72 0 371.98 53.2392 371.98 118.924Z"  transform="matrix(0.213333 0 0 0.213333 24.9558 30.7101)" />
    <path id="path24" fill="#000000" d="M371.98 118.924C371.98 184.596 288.72 237.837 185.99 237.837C83.2706 237.837 0 184.596 0 118.924C0 53.2413 83.2706 0 185.99 0C288.72 0 371.98 53.2413 371.98 118.924Z"  transform="matrix(0.213333 0 0 0.213333 24.9558 28.9932)" />
    <path id="path31" fill="#343434" d="M525.484 18.8237C519.615 99.5484 411.921 163.896 279.871 163.896C144.073 163.896 33.9826 95.8401 33.9826 11.8875C33.9826 7.8847 34.3122 3.92325 34.805 0C12.68 20.9625 0 45.1344 0 70.8913C0 150.903 121.701 215.754 271.823 215.754C421.946 215.754 543.652 150.902 543.652 70.8913C543.653 52.5325 537.178 34.992 525.484 18.8237Z"  transform="matrix(0.213333 0 0 0.213333 6.19641 62.1295)" />
    <path id="path33" fill="#cccccc" d="M571.361 190.01C571.361 294.929 443.462 380.013 285.679 380.013C127.897 380.013 0 294.929 0 190.01C0 85.0685 127.898 0 285.679 0C443.461 0 571.361 85.0675 571.361 190.01ZM285.678 8.05209C140.157 8.05209 22.1911 86.514 22.1911 183.303C22.1911 280.07 140.157 358.542 285.678 358.542C431.203 358.542 549.167 280.07 549.167 183.303C549.167 86.514 431.203 8.05209 285.678 8.05209Z"  transform="matrix(0.213333 0 0 0.213333 3.05622 18.5015)" />
    <path id="path40" fill="#808080" d="M600 203.872C600 316.477 465.689 407.743 300.004 407.743C134.311 407.743 0 316.477 0 203.872C0 91.2773 134.31 8.73396e-09 300.004 8.73396e-09C465.689 -0.00103099 600 91.2763 600 203.872ZM300.004 7.15111C142.222 7.15111 14.325 92.2186 14.325 197.161C14.325 302.08 142.223 387.164 300.004 387.164C457.787 387.164 585.686 302.08 585.686 197.161C585.687 92.2186 457.787 7.15111 300.004 7.15111Z"  transform="matrix(0.213333 0 0 0.213333 0 16.9759)" />
    <path id="path49" fill="#ababab" d="M567.789 187.766C567.789 291.463 440.686 375.543 283.899 375.543C127.103 375.543 0 291.463 0 187.766C0 84.0683 127.102 0 283.899 0C440.686 0 567.789 84.0683 567.789 187.766ZM445.026 97.0036C404.589 97.0036 371.824 116.624 371.824 140.813C371.824 165.018 404.589 184.64 445.026 184.64C485.451 184.64 518.228 165.018 518.228 140.813C518.227 116.624 485.451 97.0036 445.026 97.0036ZM396.741 240.687C356.305 240.687 323.538 260.869 323.538 285.755C323.538 310.651 356.305 330.833 396.741 330.833C437.167 330.833 469.943 310.651 469.943 285.755C469.943 260.869 437.167 240.687 396.741 240.687ZM192.875 240.687C152.438 240.687 119.674 260.869 119.674 285.755C119.674 310.651 152.438 330.833 192.875 330.833C233.301 330.833 266.075 310.651 266.075 285.755C266.075 260.869 233.301 240.687 192.875 240.687ZM284.079 14.2929C243.642 14.2929 210.876 31.1101 210.876 51.8464C210.876 72.5941 243.642 89.4123 284.079 89.4123C324.504 89.4123 357.28 72.5941 357.28 51.8464C357.28 31.1101 324.504 14.2929 284.079 14.2929ZM129.837 97.0036C89.4009 97.0036 56.6366 116.624 56.6366 140.813C56.6366 165.018 89.4009 184.64 129.837 184.64C170.262 184.64 203.038 165.018 203.038 140.813C203.038 116.624 170.262 97.0036 129.837 97.0036Z"  transform="matrix(0.213333 0 0 0.213333 3.43579 18.1226)" />
    <path id="path51" fill="#f2f2f2" d="M73.2647 0C32.8078 0 0 20.3178 0 45.3772C0 46.4508 0.146724 47.5036 0.261413 48.5782C2.80734 24.9499 34.4734 6.26147 73.274 6.26147C112.045 6.26147 143.679 24.9127 146.266 48.5048C146.392 47.4675 146.539 46.4301 146.539 45.3772C146.539 20.3178 113.731 0 73.2647 0Z"  transform="matrix(0.213333 0 0 0.213333 15.4914 37.4809)" />
    <path id="path53" fill="#f2f2f2" d="M73.2647 0C32.8077 0 0 20.3178 0 45.3772C0 46.4508 0.14775 47.5036 0.26244 48.5782C2.80734 24.9499 34.4733 6.26147 73.2739 6.26147C112.044 6.26147 143.679 24.9127 146.266 48.5048C146.393 47.4675 146.541 46.4301 146.541 45.3772C146.54 20.3178 113.732 0 73.2647 0Z"  transform="matrix(0.213333 0 0 0.213333 82.7314 37.4809)" />
    <path id="path55" fill="#f2f2f2" d="M73.2626 0C32.8078 0 0 17.4144 0 38.8946C0 39.8173 0.14775 40.7183 0.26141 41.641C2.80734 21.3862 34.4734 5.36466 73.275 5.36466C112.045 5.36466 143.68 21.3552 146.267 41.5769C146.393 40.6873 146.541 39.7967 146.541 38.8946C146.54 17.4144 113.732 0 73.2626 0Z"  transform="matrix(0.213333 0 0 0.213333 48.3962 20.0273)" />
    <path id="path57" fill="#f2f2f2" d="M73.2616 0C32.8077 0 0 20.8933 0 46.6698C0 47.7806 0.14775 48.8603 0.26141 49.97C2.80837 25.6607 34.4733 6.43299 73.274 6.43299C112.045 6.43299 143.679 25.6297 146.266 49.8863C146.393 48.8179 146.54 47.7589 146.54 46.6698C146.539 20.8933 113.731 0 73.2616 0Z"  transform="matrix(0.213333 0 0 0.213333 72.4311 68.0966)" />
    <path id="path59" fill="#f2f2f2" d="M73.2646 0C32.8077 0 0 20.8933 0 46.6698C0 47.7806 0.14775 48.8603 0.26141 49.97C2.80733 25.6607 34.4733 6.43299 73.2739 6.43299C112.044 6.43299 143.678 25.6297 146.266 49.8863C146.393 48.8179 146.539 47.7589 146.539 46.6698C146.539 20.8933 113.732 0 73.2646 0Z"  transform="matrix(0.213333 0 0 0.213333 28.9394 68.0966)" />
    <path id="path66" fill="#000000" d="M19.5636 38.9421C26.6258 27.9825 40.3422 20.4428 56.3473 20.4428C71.7726 20.4428 85.0261 27.4803 92.2248 37.8428C92.5079 37.7488 92.7817 37.665 93.0638 37.57C99.6869 34.1386 106.309 30.6596 112.46 26.5411C100.881 10.6724 80.1864 0 56.3473 0C32.4575 0 11.6055 10.6559 0 26.5731C6.62313 30.5594 12.9993 34.8877 19.5636 38.9421Z"  transform="matrix(0.213333 0 0 0.213333 53.1204 43.0628)" />
    <path id="path73" fill="#000000" d="M50.9764 18.552C50.9764 28.7998 39.5662 37.1092 25.482 37.1092C11.4102 37.1092 0 28.7998 0 18.552C0 8.30939 11.4102 0 25.482 0C39.5662 0 50.9764 8.31042 50.9764 18.552Z"  transform="matrix(0.213333 0 0 0.213333 59.6805 50.4125)" />
    <path id="path80" fill="#000000" d="M19.5635 0C26.6269 10.9649 40.3629 18.5096 56.3627 18.5096C71.8078 18.5096 85.0644 11.468 92.2734 1.10451C92.5544 1.19855 92.8282 1.28226 93.1124 1.37733C99.7345 4.80872 106.356 8.28769 112.517 12.4114C100.928 28.2862 80.2236 38.9639 56.3627 38.9639C32.473 38.9639 11.5993 28.3017 0 12.3794C6.61383 8.38791 13.0045 4.06064 19.5635 0Z"  transform="matrix(0.213333 0 0 0.213333 53.1147 57.3669)" />
    <path id="path82" fill="#fafafa" d="M56.3483 3.573C78.9496 3.573 98.6185 13.2235 110.49 27.7355C111.129 27.3263 111.821 26.9709 112.46 26.5411C100.881 10.6724 80.1864 0 56.3472 0C32.4575 0 11.6055 10.6559 0 26.5731C0.65921 26.9709 1.29982 27.4059 1.9487 27.8037C13.8486 13.2287 33.6829 3.573 56.3483 3.573Z"  transform="matrix(0.213333 0 0 0.213333 53.1202 43.0628)" />
    <path id="path84" fill="#fafafa" d="M25.4727 0C11.405 0 0 8.30424 0 18.5407C0 19.1534 0.16739 19.7289 0.25315 20.3271C1.49925 10.939 12.244 3.573 25.4737 3.573C38.7076 3.573 49.4586 10.939 50.7067 20.3271C50.7894 19.7299 50.9568 19.1544 50.9568 18.5407C50.9558 8.30424 39.5456 0 25.4727 0Z"  transform="matrix(0.213333 0 0 0.213333 59.6825 50.4094)" />
    <path id="path86" fill="#fafafa" d="M93.1124 1.37733C92.8292 1.2833 92.5554 1.19958 92.2734 1.10451C85.0644 11.468 71.8078 18.5096 56.3627 18.5096C40.3629 18.5096 26.6269 10.9649 19.5635 0C13.0035 4.06064 6.61383 8.38791 0 12.3794C0.59722 13.1915 1.31016 13.9303 1.94871 14.7155C7.87026 11.0692 13.6647 7.22962 19.5635 3.57295C26.6269 14.5378 40.3629 22.0826 56.3627 22.0826C71.8078 22.0826 85.0644 15.041 92.2734 4.67855C92.5544 4.77258 92.8282 4.85625 93.1124 4.95028C99.0422 8.02626 104.931 11.2004 110.538 14.7848C111.186 13.9881 111.909 13.238 112.517 12.4114C106.356 8.28872 99.7345 4.80975 93.1124 1.37733Z"  transform="matrix(0.213333 0 0 0.213333 53.1147 57.3669)" />
    <text id="text3756" fill="#000000" fill-opacity="0.656779" font-family="Kinnari" font-size="150pt" font-weight="bold"       x="0pt" y="106.641pt" transform="matrix(0.432104 0 0 0.475646 129.264 32.4419)">
MyMovieCollection    </text>
  </g>
</svg>
